<?xml version="1.0" encoding="utf-8"?>
<svg version="1.1" xmlns="http://www.w3.org/2000/svg" xmlns:xlink="http://www.w3.org/1999/xlink" x="0px" y="0px"
	 width="181px" height="90px" viewBox="0 0 181 90" style="enable-background:new 0 0 181 90;" xml:space="preserve">
<style type="text/css">
	.st0{fill-rule:evenodd;clip-rule:evenodd;fill:#FFFFFF;}
</style>
<path class="st0" d="M57.7018509,32.4541588c-0.0627098,0.5254669,0.3324242,1.4384842,2.0294037,1.0253754
	c0.7873383,1.9592972-0.1114655,5.2317848-2.1680832,4.5037804c-0.8190765-0.5626221-0.4602699-2.8606529-0.499527-4.6094475
	c-0.0367737-2.2198944,0.254734-5.3407631-0.9790459-5.6439342c-2.1618347-0.6687336-2.8368149,1.9429836-3.2014236,1.902895
	l0.2981987,0.2059174c0,0,0.5354729-1.0170269,1.5925865-0.8478832c0.3608513,0.1741772,0.2129936,2.8489246,0.2911263,5.2212658
	c0.0497131,2.646389-0.5375748,4.9076462,2.3193169,4.9193726c4.444828-0.0509834,5.7989311-4.4185677,4.2598152-6.4559364
	c0.3065491-0.221405,0.6761932-0.4749298,1.078846-0.8228397l0.5091515-0.3838539
	c0.042572,2.7600193,0.2414169,5.6770115,0.9873276,6.3615513c1.420517,1.1757812,3.9895935-1.4029198,3.9895935-1.4029198
	c-0.0588837-0.1056671-0.1006317-0.2343407-0.1750031-0.2915726c-0.8821106,0.6156464-2.608345,1.3035622-2.6676102-0.2627029
	c-0.0426407-1.4551811,0.5425415-9.135273,0.5425415-9.135273c-0.9234695-0.1658306-2.4141464-0.7021313-2.4141464-0.7021313
	c-0.0935593,0.4619255-0.2272034,2.25667-0.2605972,4.3074226c-0.5292282,0.5668278-1.2855949,1.2797909-1.9947968,1.8490429
	c-0.5045624-0.4025936-1.1578102-0.5821896-2.0721054-0.5233002C58.5213127,31.7115593,57.766983,32.1083527,57.7018509,32.4541588
	 M92.6993103,27.6354828c-0.0071411-0.0438461,0.0116653-0.0688934,0.0187988-0.0250454L92.6993103,27.6354828z
	 M98.829895,23.6667938c0.3976212-1.5178299-0.9790421-2.0469913-2.2805023-1.866951
	c-1.1469116,0.1574173-2.4020386,0.5099812-3.60746,2.5419312c-0.7304916,1.2254295-0.9079819,2.7110748-0.7859955,4.0893974
	c-0.8111801,0.9648304-1.567543,1.0241642-1.567543,1.0241642c-0.0225601-1.144043-0.2297516-4.2861977-1.8089523-5.4619179
	c-1.8197937-0.806076-2.5966187,1.3912601-2.5966187,1.3912601c0.0780716,0.0793457,0.0973206,0.0542984,0.1766663,0.1336441
	c0.8378143-0.7680912,1.6029739-1.2546825,1.8264847,0.3779926c0.1528244,1.1022358,0.1185989,5.2280235,0.0889664,7.4182835
	l-0.2322388-0.1357498c-0.2994766,0.7597466-1.0926743,1.2074585-1.5282822,0.9740105
	c-1.9759903-1.2785187-2.8698273-7.1142216-3.0936508-10.2091503c0,0-5.7680893,0.8846569-5.8570557,1.3912582
	c0,0,0.0225601,0.6486588,0.5505142,0.8913498c0.4949341-0.1583099,0.9648285-0.3349743,0.9802551-0.2247181
	c0.7484589,6.2382965,0.3717422,8.2448196-0.7459183,9.9272041c-1.5270081,2.3030014-6.3849411,3.1057625-7.8116989,1.5712357
	c-0.4594345-0.0722084,2.0958786,4.4339905,7.3372192,2.0019341c4.017952-2.1710777,3.1951828-13.3680038,3.0911713-13.9610882
	c0.3278961-0.0672379,0.3253479-0.0885239,0.5684204-0.1231937c0.5789337,10.7349358,3.7031174,10.2387848,5.2409592,9.9806747
	c0.4949417-0.030529,1.0775757-0.6357231,1.4906845-1.4171982l-0.0129395,0.7201004
	c1.0654602,0.0542984,2.039856,0.2818871,2.039856,0.2818871c0.3220367-0.7651634,0.431076-2.9161644,0.4490509-4.0872936
	l1.6017609-1.2772446c0.2827148,1.2429562,0.7872772,2.2967567,1.3080902,2.8104954
	c4.1036758,3.8409081,7.8509598-3.8914452,6.7048721-6.4997845c1.4906845-0.7672634,1.0809555-1.4526329,1.0809555-1.4526329
	c-1.8101654,0.5621758-2.9897079-0.4878635-2.9897079-0.4878635l-1.7545929,1.1414948
	c1.0800552,0.1645546,2.408287,2.2988586,1.5795822,5.4259739c-0.8595428,3.2202244-4.9560776,2.8626919-3.962822-2.6472168
	C95.249588,22.6522522,98.829895,23.6667938,98.829895,23.6667938z M105.3475952,32.9536858
	c6.0320587,2.8117714,6.8657303-6.9708881,6.0119781-19.3778191c1.7224731-0.0567846,3.2891846-0.1148443,6.2036896-0.9886036
	c5.5930176-1.6690006,2.886528-5.0066199,2.886528-5.0066199c-1.2405319,1.6088386-3.8179626,3.7861619-9.9969864,4.4799428
	c-1.188652-0.3090973-1.8461075-0.0166969-1.318985,1.1932449c1.7487946,8.6182213,0.9176025,15.9725838,0.6169205,16.8901901
	c-1.040863,3.2240486-4.4707642,2.1455841-4.4553452-3.4557781c0.0083466-5.3303127,4.1721191-3.9920788,4.1721191-3.9920788
	c0.1457596-1.5487385-2.1167145-1.9797554-3.386055-1.558363c-1.0976486,0.3542194-1.803093,0.9460316-2.6212769,3.1717911
	C102.3048553,27.3464603,103.8581848,32.2612419,105.3475952,32.9536858z M124.334549,28.4512463
	c-0.0593338-0.1044559-0.0768585-0.0794086-0.1562042-0.1587543c-0.9201584,0.6666317-1.7158432,1.0905724-1.7868423-0.5634518
	c-0.0542984-1.5440865,0.8144913-8.6110821,0.8144913-8.6110821c-0.9460373-0.1846294-2.0257111-1.0028152-2.0257111-1.0028152
	c-0.715065,1.8293495-2.0741425,10.2458591-3.5919724,10.1631355c-0.6620407,0.091074-0.6607666-1.865675-0.715065-3.7235126
	c-0.0546799-2.3548164,0.2355499-5.6318893-1.0253754-5.9755936c-2.2328949-0.7042332-3.0414581,1.7466888-3.2995758,2.0069046
	l0.3466415,0.2213402c0,0,0.5283279-1.0617027,1.6067963-0.8963203c0.3658829,0.1967392,0.2380371,3.0264816,0.3124084,5.5341263
	c0.0709991,2.8009357-0.3441467,5.9835606,2.295929,5.236372c1.8276978-0.1161194,3.6738052-6.9580154,3.6738052-6.9580154
	c-0.2084045,1.2655811-0.6181335,4.4920521,0.826149,5.8440514C123.3412933,30.5433617,124.334549,28.4512463,124.334549,28.4512463
	z M129.4810638,17.4890442c0,0-2.5064392,0.5692501-2.5941315,1.0771904c0,0,0.5212555,3.4582634-0.1562042,7.8463688
	c-0.831192,5.3983765-5.9221878,7.9427929-9.2526703,6.2875576c-0.4260483,0.0142136,1.5273895,4.8947105,7.6412811,1.4435196
	c3.4253082-2.0675125,3.8195496-11.1163044,3.6512451-11.2048912c0.4845428,3.3505573,1.7630005,5.7822323,3.5059357,5.5429211
	c1.8277435-0.1169472,2.7182007-6.7153263,2.7182007-6.7153263c-0.2071228,1.2659626,0.1975708,4.379694,1.6431274,5.7329693
	c1.7312775,0.9752827,2.7244568-1.1176605,2.7244568-1.1176605c-0.0593262-0.1044559-0.078064-0.0794086-0.1574707-0.1587543
	c-0.9188843,0.667841-1.1472931,0.9685917-1.7855072-0.5621758c-0.7389069-1.7654915-0.3788147-8.6278458-0.0012665-8.4996166
	c-0.9468689-0.1850128-2.5193787-0.8219452-2.5193787-0.8219452c-0.7150726,1.8294125-1.1105804,12.0242863-2.9291687,11.06073
	C129.9947968,26.1197567,130.2579498,19.6981068,129.4810638,17.4890442z M33.9267464,66.8501816
	c3.9202538,1.0333405,2.3397751-2.9303741,1.4376259-3.4356995c-3.7273064-2.0958748-8.3446541,4.7012787-5.0187302,9.5947113
	c3.324234,4.8717041,7.8981514,0.0367737,7.8981514,0.0367737s-0.151619-1.2609863-0.4878654-0.7652206
	c-2.5694962,2.7374573-5.0805168,2.1397171-6.0478649-0.3136215c-1.1744766-2.9859543,1.3035641-8.4984093,2.8523045-7.7002335
	C35.3580933,64.6741333,33.9267464,66.8501816,33.9267464,66.8501816z M35.15345,61.0596008
	c-0.3103409-0.1374054-0.089798,1.6314621,0.2819176,1.7153969c1.4409714,0.3408356,2.2858887,0.111084,3.597805-0.3161697
	c-0.2756424,7.3004417,1.8173027,14.9948158,6.806778,10.8899269c1.0726013-0.866684,1.7546577-2.6020889,2.0988083-3.864296
	c0.5104256-1.8469391,0.0192451-3.9377747-0.5918121-5.1110077c0.7388382-0.3491898,1.1711311-1.1285591,1.1711311-1.1285591
	l-0.3541565-0.2886391c-0.3362465,0.4949379-0.8111763,0.6511421-1.2764168,0.6925049
	c-1.0596619-1.3152275-2.4555092-1.168644-3.5042763,0.3479118c-0.6761894,0.9698677,0.871273,1.926281,1.7734566,1.127285
	c0,0,1.1009636,2.1192627,1.0265884,3.8609772c-0.1457558,3.1905899-1.1970062,5.3582916-2.7185974,4.2631302
	c-2.5703545-1.8489761-1.7496185-11.5623627-1.7496185-11.5623627c3.0164108-1.1126862,7.3902397-7.4044533,4.7154922-9.8470268
	c-1.5461884-1.4275856-4.4135323-0.5375137-5.3265495,1.6565094c-1.0003319,2.363163-1.803093,4.857933-2.0186348,8.0343132
	C38.1013527,61.7329254,37.2622643,62.0064621,35.15345,61.0596008z M41.6866341,60.655735
	c-0.0914574-0.3257942,0.4674034-8.5196266,2.5382347-8.6687584C46.1628151,51.8541565,45.5129433,58.0816193,41.6866341,60.655735z
	 M56.6906242,62.3439827c0.3980675-1.5165558-0.978981-2.0470543-2.2800598-1.8670158
	c-1.1473579,0.1586914-2.4024239,0.5104256-3.6078415,2.5432053c-1.6610336,2.7916946-0.4874191,6.9024429,0.7092056,8.0861282
	c4.1036072,3.8421173,7.850956-3.891449,6.7048721-6.4998474c1.4906807-0.7672005,1.0809517-1.4513588,1.0809517-1.4513588
	c-1.8114395,0.5621758-2.9892616-0.4891396-2.9892616-0.4891396l-1.7546577,1.1414948
	c1.0796776,0.1658287,2.4079056,2.2993088,1.5792046,5.425972c-0.8608246,3.2215042-4.9560814,2.8627548-3.9616165-2.6471481
	C53.1103783,61.3294411,56.6906242,62.3439827,56.6906242,62.3439827z M65.4103699,64.2689896
	c-0.005867-0.0438461,0.0121078-0.0685043,0.0191803-0.0245972L65.4103699,64.2689896z M71.5409546,60.2994766
	c0.3988342-1.5165558-0.9790421-2.0461655-2.2801208-1.8670158c-1.1472931,0.1574821-2.40242,0.5099792-3.6078415,2.5415497
	c-0.7304916,1.2254295-0.9067078,2.7115211-0.7859955,4.0885658c-0.8111801,0.9660416-1.567543,1.0249939-1.567543,1.0249939
	c-0.021286-1.1423874-0.2297516-4.2844772-1.8089561-5.4614716c-1.8185158-0.8061371-2.596611,1.3912582-2.596611,1.3912582
	c0.0793457,0.0793457,0.098526,0.0555115,0.1766624,0.1336479c0.8382607-0.7672653,1.6029739-1.2551308,1.8276939,0.3775444
	c0.2096748,1.5240784,0.0664062,8.805336,0.0664062,8.805336c1.0646362,0.0555725,2.039917,0.2815018,2.039917,0.2815018
	c0.3207626-0.7647171,0.4298058-2.9148865,0.4489899-4.0869064l1.6005516-1.2784576
	c0.2831573,1.2442322,0.7885513,2.2992401,1.3080902,2.8104935c4.1036758,3.8430099,7.8509598-3.8906174,6.7048721-6.4985085
	c1.4919586-0.7672615,1.0809555-1.4526939,1.0809555-1.4526939c-1.8101654,0.5634499-2.9892654-0.4878044-2.9892654-0.4878044
	l-1.75383,1.1410522c1.0788498,0.1658287,2.407074,2.299305,1.5783768,5.4263573
	c-0.8595505,3.2214966-4.9560776,2.8639603-3.9615479-2.6475983C67.9606476,59.2845497,71.5409546,60.2994766,71.5409546,60.2994766
	z M89.2977676,64.0146408c0.2142639-1.0633621,1.1532211-2.2495956,2.165657-3.2202263
	c0.1290588,1.4205132,0.0283661,3.143364-0.5897675,4.3746605C89.5830307,67.708519,88.9686584,65.7016144,89.2977676,64.0146408z
	 M85.423912,79.6355515c0,0,2.7373962,0.6135406,2.5619431-0.0154877
	c-1.8339386-6.1326294-1.2262573-13.6365051-0.7505035-18.0195732c0.3625031-3.2427864,2.649704-4.5914726,3.5485077-3.4557762
	c0.1879425,0.2213402,0.4059677,0.8202858,0.5621719,1.6301231c-1.1485672,0.9673805-2.1843948,2.1004639-2.6238251,2.9930878
	c-0.806076,1.6623116-1.062973,4.6870689,0.7923737,4.7701759c1.3352432,0.0639191,3.5848389-1.3937454,3.8939362-5.686573
	c0.0463333-0.9719048,0.0342178-1.8694992-0.0722733-2.6426277c0.5884933-0.4640274,1.0207901-0.7471848,1.0207901-0.7471848
	l-0.040535-0.6248245c-0.3407745,0.1369591-0.7388382,0.3491821-1.1306,0.6060219
	c-0.3788147-1.7700806-1.2254944-2.8664513-2.3014069-3.1680298c-2.186882-0.1933594-3.5163193,2.3949013-3.5163193,2.3949013
	l-0.3554306-1.2776222l-2.0566177-0.0755882L85.423912,79.6355515z M102.089386,55.665432
	c-4.5359039-6.1660881-10.899559,7.7064133-3.9733429,10.3276863c2.3949661,0.9067764,3.6926651-4.0384064,3.6926651-4.0384064
	s-0.1019058,3.8371429,2.5490036,3.1563034c1.1507416-0.2936096,1.497818-1.5332527,1.5959702-2.2875824l-0.0973206-0.0542984
	c-1.4618759,2.9445877-2.8189087-0.2192345-2.9216461-0.9698029c-0.1102524-0.7932014-0.3516693-5.0091667-0.3516693-5.0091667
	l-1.5144501-0.2192383c0,0,0.3387299,5.0792732-0.6215134,6.7629356c-0.5968399,1.0487671-2.6083374,3.102005-2.8083878-0.8053131
	C97.3759308,54.7406845,102.1474457,56.0843391,102.089386,55.665432z M108.7086029,65.3666382
	c6.0311661,2.8117752,6.8644562-6.9709511,6.0119858-19.3778191c1.7228546-0.0580597,3.2891159-0.1148453,6.204071-0.9894943
	c5.5930099-1.669384,2.8852539-5.0057907,2.8852539-5.0057907c-1.2396469,1.6101761-3.8183517,3.7849503-9.9961014,4.4787292
	c-1.1887207-0.3090973-1.845665-0.0154839-1.318985,1.1936913c1.7475204,8.617775,0.9163284,15.9725838,0.6168594,16.8910179
	c-1.0404205,3.2239876-4.4715958,2.1443138-4.4561081-3.4570503c0.0079041-5.3286552,4.1733932-3.9908676,4.1733932-3.9908676
	c0.1453094-1.5499496-2.1172256-1.9797554-3.386055-1.5583c-1.0976486,0.3528824-1.8035355,0.9447556-2.6213455,3.1717911
	C105.6658707,59.7594147,107.2191925,64.6729202,108.7086029,65.3666382z M123.5292358,53.1401978
	c0.3980713-1.5157928-0.978981-2.0462303-2.2800598-1.8674622c-1.1485672,0.1587563-2.40242,0.5104256-3.6073914,2.5432053
	c-1.6611023,2.7916946-0.4878693,6.9024429,0.7087555,8.0877838c4.1036072,3.8417358,7.8496857-3.8918266,6.7048721-6.5002327
	c1.4906845-0.7668152,1.0821609-1.4534607,1.0821609-1.4534607c-1.8114395,0.5646629-2.9904709-0.4870338-2.9904709-0.4870338
	l-1.7546539,1.1402817c1.0796738,0.1670418,2.4079056,2.2992439,1.5792007,5.4259758
	c-0.8608246,3.2227097-4.9560776,2.8639641-3.9624405-2.6472168
	C119.9489899,52.1264839,123.5292358,53.1401978,123.5292358,53.1401978z M138.6343079,47.5542564
	c0.0033722,0.021286,0.4711609-2.7871704-0.3069916-2.387001c-2.4742584,1.2847633-8.0410156,2.5005722-7.8634491,2.3193207
	c0.120697,0.388443,0.1089783,0.7931366-0.0179749,1.01371C134.2913818,49.1618195,138.164032,47.5730591,138.6343079,47.5542564z
	 M133.5587921,49.5561256c-2.2687836,0.177494-3.7498322,7.058651-3.7498322,7.058651
	c0.2108917-1.241745,0.8382568-4.5213051-0.5872955-5.8996277c-1.7308121-0.9764938-3.7197495,1.2312927-3.7197495,1.2312927
	c0.0588913,0.1056671,0.0994263,0.2335129,0.1774979,0.3128586c0.9197083-0.6653595,2.6897888-1.35952,2.739502,0.2981987
	c0.0334473,1.5462532-0.4226761,9.1862602-0.4226761,9.1862602c0.9259567,0.1871147,2.2959366,0.1787682,2.2959366,0.1787682
	c0.2510376-1.6076279,1.5875397-9.8645554,2.9078064-9.9108887c0.6653595-0.0697861,0.9468536,1.4881325,0.9777679,3.3492813
	c-0.3549805,4.2765121-0.2898407,5.7279358-0.2898407,5.7279358c0.9468536,0.1858406,2.1200867,0.0463943,2.1200867,0.0463943
	c0.0108948-2.2044716,1.6732025-9.4042854,2.9742279-9.4256363c0.6620331-0.0910072,0.5434265,1.342823,0.5755463,3.2039757
	c0.0317383,2.3560905-0.829071,5.7350731,0.4319153,6.078392c2.214035,0.7292175,3.3066406-1.6243248,3.7343445-1.9534988
	l-0.1114655-0.4794502c0,0-1.0312347,1.3340263-2.1096954,1.168644c-1.3854065-1.0692215,2.3017883-11.8526573-1.9513397-10.9066277
	c-1.8277588,0.1161194-4.0229797,6.8715324-4.0229797,6.8715324
	C135.812973,54.1688881,135.4671021,49.5407028,133.5587921,49.5561256z M144.3751831,66.5494995
	c0.8596039-1.1081009,3.6679993-2.4392014,7.0444336-1.9159012c-1.0074158,4.2765808-3.5196991,6.2867966-5.2968597,6.5996552
	C143.9692078,71.5966492,142.5174103,68.8959656,144.3751831,66.5494995z M157.4671021,57.2813416
	c0.7722931,1.8494911,2.5908051,1.0149879,2.6071167-0.4936638c0.0070801-0.6085701-0.5492401-1.543705-1.5307617-1.3177757
	C157.2102509,55.7422256,157.4671021,57.2813416,157.4671021,57.2813416z M154.8908691,37.9169044
	c-1.2596436,8.9874191,1.40802,16.2649193,2.3264618,16.56567l0.661972-0.4047585
	c-1.8021851-2.1585236-1.7370605-10.17276,0.5396881-14.3766212
	C159.2584534,38.125309,155.6130829,37.1212158,154.8908691,37.9169044z M62.9335709,6.8726492
	C-38.7947617,26.3553715-3.2029443,100.6777878,94.1423187,85.0736313
	c11.9153671-1.9100266,24.5235672-6.0963593,38.1529999-10.9680634c4.5379944-1.6210098,4.0785522,1.2121124,1.0796661,2.393692
	C99.2584305,89.9298477,9.6241379,105.89077,0.8710289,51.8528824c-3.0414908-18.7868385,12.195981-39.633606,61.3061142-47.7660637
	C89.3249207-0.4089947,182.8155365-10.5980701,180.456131,47.0463181
	c-0.4510956,11.0164986-11.4654846,18.0054245-27.8808136,17.8124466c-0.7638855,2.7800293-2.2249298,6.8702545-6.771286,7.4967346
	c-4.0146332,0.5530014-4.741806-2.2696075-4.6386261-3.970787c0.0960388-1.5867233,1.4848175-5.0617485,9.2693634-5.3470116
	l1.2772369-0.0400887c0.2059174-1.6017647,0.221344-3.4478722-0.0258636-5.5730019
	c-0.0213623-0.153656-7.3715057,7.0411186-6.4539032-6.3732147c0.2852631-4.1320305-2.4801178-0.3776093-2.8046265,0.2062988
	c0,0-0.1174011-0.0283585-0.3483582-0.2439003c0.1779327-0.9911499,1.8506927-3.3801918,4.3817902-3.2795601
	c2.4676208,0.1098747,0.1967468,9.1018791,1.4447327,10.1665154c0.4331207,0.3679848,2.8652344-0.2593231,3.644165-1.4680557
	c0,0-0.157486-5.8699913-0.5575867-8.7828407c-0.0580597-0.4189072,2.4968719-0.6356583,2.624649-0.2046394
	c0.331604,1.1022339-0.2556152,11.7056313-0.6737061,15.518177c13.223465-0.2050896,26.5087433-5.1916962,26.3170471-16.190609
	C178.258728-10.5421133,87.2328033,2.2185917,62.9335709,6.8726492z M39.2712708,23.5248013
	c0,0,0.283989-0.061821,0.2013283-0.6570091c-0.0981445-0.7188282-1.151947-0.750948-1.4229965-0.2405853
	c-0.0251083,0.0476074-0.0639229,0.0994205-0.0547447,0.1541653l0.3103065,1.8373165
	c0.289917,1.7275066,0.39431,5.551651,0.3387337,7.0870075c-0.1444778,3.9604034-0.7864456,7.0056229-2.7574387,9.6411133
	c-2.3180733,3.102066-8.4607716,4.1992683-8.2949429-0.9723549l-0.3420792,0.1374054c0,0-0.9957085,5.1728973,5.340765,4.818676
	c5.2200241-0.2923355,7.6838837-5.7099609,7.972908-9.9756355c0.6532478,2.7867241,1.8327255,5.6364784,3.9185944,5.597599
	c1.9062729-0.0379829,2.9917488-3.0877914,3.5886574-6.272583c0.4251518,3.7411041,1.7487297,10.4163437,5.9551353,10.1085205
	c3.8041344-0.2994728,3.4704361-4.5263405,3.4704361-4.5263405l-0.409729-0.0329475c0,0-0.9924278,3.7351761-3.628746,1.736618
	c-3.7151642-2.8162956-3.5080376-8.9836578-3.7519379-11.8947849c0,0-0.409729-8.0393467,0.6807823-11.7190132
	c-0.0404701-0.1290569-1.0195122-0.218853-1.6719322,0.4335022c-1.0145416,3.084095,0.0747566,20.7874966-4.4870186,20.314291
	C39.9603996,38.6519852,39.7461357,25.0104465,39.2712708,23.5248013z"/>
</svg>
