<svg width="554" height="17" viewBox="0 0 554 17" fill="none" xmlns="http://www.w3.org/2000/svg">
<g clip-path="url(#clip0_1_2)">
<path fill-rule="evenodd" clip-rule="evenodd" d="M206.5 1.081C132.262 3.118 84.506 5.307 32 9.08C1.88301 11.245 -0.787988 11.784 0.606012 15.415C1.12601 16.77 2.01301 17.056 4.39301 16.632C23.073 13.306 103.266 7.687 173.5 4.782C214.352 3.093 409.78 3.131 491.854 4.845C525.598 5.549 553.483 5.851 553.818 5.515C554.154 5.179 553.947 4.13801 553.358 3.20201C552.408 1.69301 549.187 1.43 524.893 0.884005C486 0.00900483 240.026 0.161003 206.5 1.081Z" fill="#FFCC04"/>
</g>
<defs>
<clipPath id="clip0_1_2">
<rect width="554" height="17" fill="white"/>
</clipPath>
</defs>
</svg>
