<svg width="19" height="19" viewBox="0 0 19 19" fill="none" xmlns="http://www.w3.org/2000/svg">
<g clip-path="url(#clip0_1_2)">
<path d="M13.5531 8.95844C13.7527 8.96414 13.9648 8.9479 14.0754 8.87417C14.1861 8.80074 14.3195 8.58298 14.454 8.40769C15.0834 7.58848 16.1995 7.2458 17.2106 7.63941C18.4382 8.11705 19.0455 9.49976 18.5677 10.727C18.0898 11.9546 16.7077 12.5622 15.4801 12.0844C14.8732 11.848 14.4183 11.3903 14.1708 10.8395C14.1292 10.7464 14.1062 10.6942 14.0356 10.6249C13.9648 10.5555 13.8207 10.5116 13.7054 10.4878C13.0279 10.3479 12.4587 10.343 11.9824 10.4151L11.8986 10.1886C11.8717 10.1133 11.7075 9.65151 11.4649 8.97199C12.0274 8.97762 12.8373 8.93778 13.5531 8.95844ZM15.8777 11.0634C16.5411 11.3214 17.2884 10.9931 17.5467 10.3295C17.8048 9.66598 17.4764 8.91891 16.8131 8.66057C16.1496 8.40198 15.4025 8.73068 15.1439 9.39391C14.8858 10.0574 15.2143 10.8048 15.8777 11.0634Z" fill="#999999"/>
<path d="M0.0333757 6.27791C0.17354 5.91745 0.604348 5.87759 1.67181 6.15508C2.25003 6.30537 4.92257 7.10907 7.25401 7.81501C7.48391 9.01072 7.69156 10.0839 7.8131 10.7107C5.44233 9.57239 1.80474 7.82046 1.15777 7.47675C0.183337 6.95903 -0.107308 6.63836 0.0333757 6.27791Z" fill="#999999"/>
<path d="M7.59718 14.5823C7.7854 14.4667 8.01585 14.3568 8.10068 14.2544C8.1852 14.1517 8.2235 13.9425 8.23846 13.7434C8.31243 12.7675 8.51776 11.626 8.49214 11.1653C8.49214 11.1653 6.85268 2.72588 6.68793 1.63515C6.52325 0.544117 6.60783 0.120062 6.98066 0.0178986C7.35379 -0.0839683 7.64241 0.238257 8.05587 1.26097C8.46909 2.28398 11.3521 10.383 11.3521 10.383C11.3521 10.383 9.45305 11.1363 9.74393 14.0542C9.75564 14.1712 9.78432 14.3191 9.84586 14.3967C9.90739 14.4745 9.95679 14.5026 10.0449 14.5539C10.5671 14.857 10.9748 15.3573 11.1466 15.9857C11.4941 17.2562 10.7457 18.5677 9.47554 18.9153C8.20481 19.2626 6.89326 18.5142 6.54599 17.2437C6.25976 16.1972 6.71692 15.1228 7.59718 14.5823ZM9.82005 10.4012C10.0606 10.3355 10.2022 10.0875 10.1363 9.84703C10.0706 9.60652 9.82263 9.46482 9.58212 9.53052C9.34162 9.59647 9.20016 9.8447 9.26587 10.0849C9.33157 10.3254 9.5798 10.4668 9.82005 10.4012ZM7.60288 16.9546C7.79061 17.6414 8.49968 18.0459 9.1865 17.8582C9.87331 17.6704 10.2778 16.9614 10.09 16.2745C9.90224 15.5877 9.19293 15.1833 8.50636 15.3712C7.81954 15.5588 7.41514 16.268 7.60288 16.9546Z" fill="#999999"/>
</g>
<defs>
<clipPath id="clip0_1_2">
<rect width="19" height="19" fill="white"/>
</clipPath>
</defs>
</svg>
