<?xml version="1.0" encoding="utf-8"?>
<svg version="1.1" xmlns="http://www.w3.org/2000/svg" xmlns:xlink="http://www.w3.org/1999/xlink" x="0px" y="0px"
	 width="103px" height="103px" viewBox="0 0 103 103" style="enable-background:new 0 0 103 103;" xml:space="preserve">
<style type="text/css">
	.st0{fill-rule:evenodd;clip-rule:evenodd;fill:#E16A1D;}
	.st1{fill-rule:evenodd;clip-rule:evenodd;fill:#FFFFFF;}
</style>
<path class="st0" d="M51.5,0.5c-28.1667557,0-51,22.8332462-51,51s22.8332443,51,51,51s51-22.8332443,51-51S79.6667557,0.5,51.5,0.5
	"/>
<path class="st1" d="M77.9297791,39.53368c-0.678978-3.3654518-2.0804291-6.6400299-4.1682434-9.8293552
	c-1.7160187,1.0069256-3.2731628,2.1452427-4.6430893,3.4239292c-2.3141479,2.1443596-4.1779404,5.0221138-5.6142578,8.659687
	l0.4707909,0.5086632c2.2047691,2.3824844-0.2765236,6.88731-7.4484596,13.5285721
	c-7.4319,6.8922462-12.2409019,9.1413994-14.446022,6.7583885l-0.4854126-0.5132408
	c-3.7513504,0.8572159-6.8288383,2.3690987-9.1917725,4.5638313c-1.4379082,1.3410416-2.621666,2.9251404-3.5403519,4.7228775
	c2.7549992,2.1558075,5.9171982,3.7934494,9.4529724,4.9183731c4.0875816-1.6790237,8.030735-3.749588,11.8410912-6.2417984
	c3.8237419-2.4864044,7.5097504-5.3805389,11.0560875-8.6801224c3.6356354-3.3716202,6.8628311-6.8688202,9.6387863-10.5065689
	C73.6222153,47.2248421,75.9946594,43.4468956,77.9297791,39.53368 M72.7690506,28.6373386l-1.0539474-1.1347904
	c-1.3619995-1.4773598-2.6257172-2.1977234-3.779007-2.1577473c-1.1671982,0.0364628-2.5876694,0.8371353-4.2806168,2.4129601
	c-4.7209358,4.3744907-5.4828644,8.2861156-2.2850876,11.7350597l1.0289459,1.1113625
	c1.128273-3.3360329,2.9920578-6.2132683,5.6297531-8.6542225C69.4907761,30.5835533,71.0894928,29.4746571,72.7690506,28.6373386z
	 M40.3304863,60.7048073l-0.7878227-0.8711319c-3.4084282-3.6789627-7.435421-3.3689766-12.0730515,0.9480972
	c-1.7764282,1.632534-2.7040939,3.0320473-2.7784195,4.1818123c-0.0944042,1.1603317,0.6264877,2.5727005,2.1508751,4.2166824
	l0.9669456,1.0419693c1.0890007-2.0265274,2.2812099-3.6416245,3.5776901-4.8433456
	C33.8621826,63.086937,36.8586464,61.516758,40.3304863,60.7048073z"/>
</svg>
