<?xml version="1.0" encoding="utf-8"?>
<svg version="1.1" xmlns="http://www.w3.org/2000/svg" xmlns:xlink="http://www.w3.org/1999/xlink" x="0px" y="0px"
	 width="103px" height="103px" viewBox="0 0 103 103" style="enable-background:new 0 0 103 103;" xml:space="preserve">
<style type="text/css">
	.st0{fill-rule:evenodd;clip-rule:evenodd;fill:#E16A1D;}
	.st1{fill-rule:evenodd;clip-rule:evenodd;fill:#FFFFFF;}
	.st2{fill:#FFFFFF;}
</style>
<path class="st0" d="M51.5000076,0.4999933C79.6667709,0.4999933,102.5,23.3332424,102.5,51.5
	s-22.8332291,51.0000076-50.9999924,51.0000076S0.5,79.6667557,0.5,51.5S23.3332424,0.4999933,51.5000076,0.4999933"/>
<path class="st1" d="M52.3956184,68.8803253L52.3956184,68.8803253c-1.7887611,0-3.6234932-0.1352692-5.4548645-0.403862
	c-0.1882858-0.0285339-0.3788567-0.042099-0.5651932-0.042099c-1.1587601,0-2.2690582,0.5167618-3.0165482,1.4275208
	c-0.8341446,1.0174942-3.2101135,3.2821426-6.0184708,4.953598c0.760334-1.74543,1.3563538-3.7039719,1.3963318-5.7195816
	c0.0119858-0.1262817,0.0174408-0.2515106,0.0174408-0.3598251c0-1.4659195-0.8216362-2.8088989-2.1262169-3.4753647
	c-7.2307625-3.692524-11.5458965-9.6333275-11.5458965-15.8895721c0-10.7570229,12.2528706-19.5100632,27.3134174-19.5100632
	c15.061245,0,27.3141289,8.7530403,27.3141289,19.5100632S67.4568634,68.8803253,52.3956184,68.8803253 M52.3956184,25.9587841
	c-17.2399483,0-31.2151852,10.4829693-31.2151852,23.4123554c0,8.0516968,5.4219265,15.1501846,13.6717625,19.3649368
	c0,0.0528336-0.0149689,0.0873566-0.0149689,0.144249c0,3.4982529-2.6121559,7.2631683-3.7610359,9.2407303h0.0029964
	c-0.0907173,0.213295-0.1437283,0.4493027-0.1437283,0.6969452c0,0.977684,0.7897625,1.7685013,1.767971,1.7685013
	c0.1826439,0,0.5046082-0.0500183,0.4966927-0.0250168c6.0970154-0.9979401,11.8414421-6.6002197,13.1754379-8.224823
	c1.9486809,0.286026,3.9591866,0.4457779,6.0200577,0.4457779c17.2385445,0,31.2158928-10.4824409,31.2158928-23.4113007
	C83.6115112,36.4417534,69.6341629,25.9587841,52.3956184,25.9587841z"/>
<path class="st2" d="M56.7248306,61.0648117c0-1.689949-1.6036301-3.0239449-3.4505081-3.0239449
	c-1.8467026,0-3.3045273,1.3339958-3.3045273,3.0239449c0,1.7783661,1.4578247,3.2462158,3.3045273,3.2462158
	C55.1696281,64.3110275,56.7248306,62.8431778,56.7248306,61.0648117 M62.4028511,41.6796265
	c0-4.1809311-3.44981-6.8045387-7.9696121-6.8045387c-3.693058,0-6.9977417,1.3790855-8.8934135,2.8464088l1.8956718,2.6679878
	c1.4093781-0.889267,3.4987755-1.9566078,6.074131-1.9566078c2.4788284,0,4.4229126,1.3345261,4.4229126,3.6465569
	c0,2.6685219-2.2841873,3.4244614-4.0340195,4.8923111c-2.234726,1.8676605-3.2557335,3.9575996-3.2557335,6.3591042
	c0,0.5785828,0.0484276,1.1119003,0.1463623,1.7343369c0.047905,0.1777115,0.1451225,0.7559395,0.1940918,0.9341812h3.8388939
	c-0.0484428-0.4448967-0.1458397-0.8896217-0.1948051-1.3789062c0-0.222271-0.047905-0.4005127-0.047905-0.6220856
	c0-2.0904617,0.874836-4.0026855,3.0125008-5.3815956C58.7097931,47.8608398,62.4028511,45.859848,62.4028511,41.6796265z"/>
</svg>
