<?xml version="1.0" encoding="utf-8"?>
<svg version="1.1" xmlns="http://www.w3.org/2000/svg" xmlns:xlink="http://www.w3.org/1999/xlink" x="0px" y="0px"
	 width="103px" height="103px" viewBox="0 0 103 103" style="enable-background:new 0 0 103 103;" xml:space="preserve">
<style type="text/css">
	.st0{fill-rule:evenodd;clip-rule:evenodd;fill:#E16A1D;}
	.st1{fill-rule:evenodd;clip-rule:evenodd;fill:#FFFFFF;}
</style>
<path class="st0" d="M51.5000076,0.4999933C79.6667709,0.4999933,102.5,23.3332424,102.5,51.5
	s-22.8332291,51.0000076-50.9999924,51.0000076S0.5,79.6667557,0.5,51.5S23.3332424,0.4999933,51.5000076,0.4999933"/>
<path class="st1" d="M32.0310822,67.6326294c0.5116501,0.8492889,1.1547165,1.6256638,1.9536362,2.2192154
	c0.8381805,0.6231384,1.829792,0.9949417,2.8456993,1.2077026l0.2291641,0.0479126l11.8964462-3.7055588
	c-3.3071747-0.7489014-6.2448425-2.259552-8.8295326-4.4748878c-2.5686493-2.2015991-4.5971298-4.9111557-6.1937561-7.8743362
	L32.0310822,67.6326294z M66.6069565,42.9262581l-18.2740822,21.172184c0.4753685,0.198143,0.9562187,0.3843155,1.4424973,0.5511017
	c0.4373398,0.1493607,0.8841629,0.2840958,1.3364716,0.3793793c0.5347366,0.1123734,1.1099739,0.178772,1.6441689,0.2462311
	c0.0574074,0.0049286,0.1157265,0.0100403,0.1747169,0.0160294l20.113224-22.6574707L66.6069565,42.9262581z M58.2637253,36.121727
	L39.38517,57.8062668c0.7108727,1.016964,1.559269,1.9286003,2.5057831,2.7313919
	c1.0678864,0.9061813,2.2696075,1.6600075,3.518898,2.293541l18.7022552-21.3953362L58.2637253,36.121727z M56.038166,27.4255791
	L35.2433319,51.5239525c0.5466957,1.3755608,1.2630272,2.6192017,2.2206421,3.7425461L56.4858818,33.828186L56.038166,27.4255791z
	 M58.6618004,25.2248573l0.4727058,8.0062561l8.1834793,7.2122726l8.0230408-0.6215591l-0.3304291-8.1799145l-7.775032-6.8652973
	L58.6618004,25.2248573z M56.4344673,22.8883438l11.7301674-1.0025177l9.3237457,8.5064583l0.607132,10.5423203
	L56.0325241,65.9511337c-1.3089828,1.48423-2.9586067,2.8777542-4.919632,3.4394302
	c-0.2201614,0.047905-0.4359131,0.1063766-0.6506195,0.1752472l-16.1335793,5.1977158
	c-0.2421722,0.0783768-0.4827614,0.1653824-0.7219505,0.2511597c-0.9472389,0.3385162-2.2970715,0.7388535-3.3071728,0.5267944
	c-0.6835709-0.143898-1.2556343-0.5107727-1.5142002-1.169838c-0.3106766-0.7518921-0.1757641-1.9615402-0.0584526-2.745842
	l2.7474194-18.3153839c0.1268234-0.8457642,0.3779716-1.6637039,0.7753201-2.4140091
	c0.4713364-0.9285469,1.1682625-1.8148232,1.8532295-2.5947189L56.4344673,22.8883438z M65.7761612,28.4631481
	c1.4673309,0.3085804,2.9182892,1.1367321,4.3156891,2.4878139c1.4093933,1.3535385,2.0395813,2.5441704,1.8877411,3.5812111
	c-0.0984421,0.6735115-0.4558029,1.1782913-1.0854645,1.5236855c-0.628952,0.3455582-1.3739853,0.4283409-2.2227631,0.2497482
	c-1.3868332-0.2916679-2.7278748-1.1418381-4.0210037-2.5623093c-1.293499-1.4208298-1.8627434-2.6211414-1.717453-3.6136227
	c0.0903511-0.6185627,0.4084473-1.0974541,0.9511108-1.4153652C64.4271927,28.3956928,65.0533295,28.3113251,65.7761612,28.4631481z
	"/>
</svg>
