<?xml version="1.0" encoding="utf-8"?>
<svg version="1.1" xmlns="http://www.w3.org/2000/svg" xmlns:xlink="http://www.w3.org/1999/xlink" x="0px" y="0px"
	 width="103px" height="103px" viewBox="0 0 103 103" style="enable-background:new 0 0 103 103;" xml:space="preserve">
<style type="text/css">
	.st0{fill-rule:evenodd;clip-rule:evenodd;fill:#E16A1D;}
	.st1{fill-rule:evenodd;clip-rule:evenodd;fill:#FFFFFF;}
</style>
<path class="st0" d="M51.5,0.5000134c28.1667252,0,51,22.8332405,51,50.9999847s-22.8332748,50.9999847-51,50.9999847
	c-28.1667805,0-51-22.8332367-51-50.9999847S23.3332195,0.5000134,51.5,0.5000134"/>
<path class="st1" d="M69.3130264,60.8560982L69.3130264,60.8560982c-2.5596313-2.4103127-5.1856995-5.4597931-6.7825012-8.6137199
	c-0.7274017-1.437912-1.9479561-4.3829422-0.6060333-5.8083496c1.3426208-1.4259338,4.355629-0.3844872,5.834938,0.2546806
	c3.2440872,1.4039154,6.4468307,3.8397675,9.007164,6.2506104c2.5602188,2.4099579,5.1857452,5.4594383,6.7818527,8.6138916
	c0.7279358,1.4372025,1.9486542,4.3818855,0.6065674,5.8078194c-1.3424606,1.4259338-4.3549347,0.3848419-5.8342438-0.2552032
	C75.0759354,65.7029648,71.874321,63.2665863,69.3130264,60.8560982 M77.9477463,51.6837006L77.9477463,51.6837006
	c2.8333282,2.6671066,5.46595,5.8618927,7.28479,9.3147087c1.1807861,2.2431679,2.766304,5.8918343,0.7372894,8.1085854
	l-3.5450821,3.7654343c-0.6495667,0.6898956-1.3217087,0.8137131-2.2282028,0.6684113
	c-5.3646851-0.6904221-11.163559-4.6855392-15.0073776-8.3037338c-3.8432884-3.6185532-8.1812935-9.1664085-9.1938362-14.474556
	c-0.1997337-0.9005432-0.1178741-1.5786362,0.5316963-2.2690582l3.5466957-3.7670212
	c2.0888863-2.1577492,5.8268242-0.7952232,8.1364098,0.2481651C71.7674103,46.5812721,75.1150665,49.016243,77.9477463,51.6837006z
	 M58.8260193,59.4741974L58.8260193,59.4741974c-1.5666504-2.2750473-2.8565979-4.7260437-3.5472336-7.1714058
	c-4.0304985-0.1447754-8.7869949-0.7797203-12.4863968-2.4902763c-0.4509087,2.391468-1.2381821,4.2911873-2.4769058,6.3855247
	C45.7096176,58.7932854,52.8519211,59.6818504,58.8260193,59.4741974z M68.1238556,38.595623L68.1238556,38.595623
	c1.0014191,0.2481689,1.9875717,0.5361366,2.9501266,0.8662033c2.8552017,0.9820862,7.2108307,2.8522148,7.2607117,6.431488
	v4.7105446c-1.1517029-1.0618744-2.3770447-2.079895-3.6604843-3.021122
	c0.4068375-0.5157051,0.6604843-1.0902328,0.6604843-1.7218323c0-2.3326378-3.4628448-3.8897858-5.2678299-4.5428696
	c-0.6294632-0.2275581-1.2790298-0.4313393-1.9430084-0.6134491V38.595623z M67.0948639,37.1497879L67.0948639,37.1497879
	c-0.8966522,0.394352-1.8472214,0.7228317-2.8252563,0.9945984c-0.8138847,1.2741089-2.8039246,2.1471786-3.961647,2.5656548
	c-3.2491875,1.1753044-7.1624031,1.5870895-10.6007919,1.5870895c-3.438549,0-7.3506889-0.4117851-10.6013298-1.5870895
	c-1.4814034-0.535778-4.323597-1.8142929-4.323597-3.7284508c0-1.9146881,2.8421936-3.192852,4.323597-3.7289886
	c0.5691032-0.2057114,1.158741-0.3874741,1.7623558-0.5482826v-1.7264099
	c-0.8801041,0.2131195-1.7454262,0.4623375-2.5882263,0.7518959c-2.3444138,0.8052559-5.9187355,2.3405647-5.9596405,5.276268
	v5.0583954c0,0.657135,0.1987152,1.1184158,0.5807152,1.5122375c2.0499725-0.7453728,4.3989563-1.0703316,6.0404816,0.5262718
	l3.0889587,3.0889282c0.096859,0.0973969,0.1842041,0.1951485,0.2625694,0.2950172
	c2.5531807,0.4908676,5.1435013,0.6930618,7.4141159,0.6930618c1.8842049,0,3.9889488-0.1398468,6.1093864-0.4677963
	l3.5009003-3.7180634c1.9694557-2.0349808,4.9241447-1.622139,7.4538918-0.7358627
	c0.2131195-0.324604,0.3235168-0.70504,0.3235168-1.1937943V37.1497879z M63.9354935,65.4942551L63.9354935,65.4942551
	c-1.4387779-1.403923-2.9047012-3.0350418-4.2316284-4.8014259c-0.5398674,0.0274696-1.0713997,0.0459671-1.5941734,0.0560074
	c-4.0405502,1.4542885-8.6762199,1.9465637-12.9538574,1.9465637c-2.9071236,0-6.0924034-0.2411194-9.0925674-0.8672523
	c-0.300518,0.3230171-0.600605,0.6345901-0.8991318,0.9331245c-1.5196724,1.5198097-3.3834553,3.0984459-5.4075203,4.4310265
	c4.8283653,1.9555511,10.6786766,2.6704559,15.3992195,2.6704559
	C51.0490913,69.8627548,58.7043304,68.7475128,63.9354935,65.4942551z M30.953413,58.5516396L30.953413,58.5516396
	c2.0953922-2.095047,4.2272778-4.7285118,5.4913158-7.4241524c0.5761452-1.2290192,1.5282745-3.7393723,0.3624916-4.9051628
	c-1.1657867-1.1663208-3.676178-0.2131157-4.9048519,0.362999c-2.6954556,1.2635422-5.3294201,3.3969803-7.4234123,5.4902611
	c-2.0943699,2.0939865-4.2267399,4.728157-5.4904575,7.4236221c-0.5770054,1.2291985-1.5291328,3.7388458-0.362812,4.9051666
	c1.1661606,1.1668472,3.6759624,0.2132874,4.9046345-0.362999C26.2259388,62.777832,28.8594208,60.6454468,30.953413,58.5516396z
	 M23.4519539,51.0487595L23.4519539,51.0487595c2.317646-2.3171387,5.0740547-4.451458,8.0261669-5.8948288
	c1.9187145-0.9371796,5.0310535-2.1787033,6.8448505-0.4149551l3.0804634,3.0804749
	c0.5641632,0.5641403,0.6504288,1.1328545,0.5056801,1.8926735c-0.7178841,4.4979591-4.228672,9.2782478-7.3720284,12.421608
	c-3.1433525,3.1438866-7.9243641,6.654644-12.4186172,7.3721886c-0.7628193,0.1451263-1.3320332,0.0588303-1.8961926-0.5058441
	l-3.0818634-3.0813522c-1.7625179-1.8128891-0.5208378-4.9252472,0.4168835-6.8429298
	C18.9996262,56.122654,21.1344681,53.3662491,23.4519539,51.0487595z M55.9392662,33.5585403L55.9392662,33.5585403
	c2.8129539,0,6.0151634-0.3364067,8.6746635-1.2985916c1.2128143-0.4378548,3.5387878-1.4847565,3.5387878-3.0503616
	c0-1.5671883-2.3259735-2.6132107-3.5387878-3.0515957c-2.6595001-0.9620113-5.8617096-1.2985935-8.6746635-1.2985935
	c-2.8138123,0-6.0159683,0.3365822-8.674984,1.2985935c-1.2128143,0.438385-3.5387383,1.4844074-3.5387383,3.0515957
	c0,1.5656052,2.3259239,2.6125069,3.5387383,3.0503616C49.9232979,33.2221336,53.1254539,33.5585403,55.9392662,33.5585403z
	 M55.9392662,23.4799652c3.1129341,0,6.3985634,0.4174213,9.351696,1.4313946
	c1.9182281,0.659071,4.8428268,1.9152145,4.8757706,4.3191833v4.1383076c0,0.7584076-0.3235168,1.1981964-0.9315414,1.6112175
	c-3.5033722,2.539238-9.0730553,3.3929291-13.2959251,3.3929291c-4.2231903,0-9.7934113-0.8536911-13.2943115-3.3909874
	c-0.6104393-0.4149628-0.9340134-0.8547516-0.9340134-1.6131592v-4.1393623
	c0.0334854-2.402914,2.9586143-3.6590576,4.8768463-4.3181286C49.5403824,23.8973866,52.8255272,23.4799652,55.9392662,23.4799652z"
	/>
</svg>
