<?xml version="1.0" encoding="utf-8"?>
<svg version="1.1" xmlns="http://www.w3.org/2000/svg" xmlns:xlink="http://www.w3.org/1999/xlink" x="0px" y="0px"
	 width="103px" height="103px" viewBox="0 0 103 103" style="enable-background:new 0 0 103 103;" xml:space="preserve">
<style type="text/css">
	.st0{fill-rule:evenodd;clip-rule:evenodd;fill:#E16A1D;}
	.st1{fill-rule:evenodd;clip-rule:evenodd;fill:#FFFFFF;}
</style>
<path class="st0" d="M51.4999733,0.4999866C79.6667709,0.4999866,102.5,23.3332386,102.5,51.5
	s-22.8332291,51.0000153-51.0000267,51.0000153C23.3332329,102.5000153,0.5,79.6667633,0.5,51.5
	S23.3332329,0.4999866,51.4999733,0.4999866"/>
<path class="st1" d="M71.6457062,64.3779602c1.160675,0,2.1008682,0.9405212,2.1008682,2.100853
	s-0.9401932,2.1008606-2.1008682,2.1008606c-1.1603622,0-2.1008759-0.9405289-2.1008759-2.1008606
	S70.4853439,64.3779602,71.6457062,64.3779602 M26.4385338,45.7510033L26.4385338,45.7510033
	c0.0364418,0.8637314,0.3975353,2.5582619,3.4535465,2.5582619c2.6195621,0,3.4927845,0,3.4927845,0
	c0.4827843,0,0.8732224,0.3908234,0.8732224,0.8732414c0,0.4827652-0.3904381,0.8735962-0.8732224,0.8735962
	c0,0-0.7638931,0-3.3836174,0c-2.6195621,0-2.9640465,2.1723633-2.7933903,3.2192688
	c0.2127972,1.3031731,0.8253326,3.7659721,3.7740593,3.7659721c2.9485645,0,4.1492329,0,4.1492329,0
	c0.4827843,0,0.8732796,0.3883591,0.8732796,0.8732414c0,0.4803009-0.3904953,0.8730659-0.8732796,0.8730659
	c0,0-2.0733528,0-3.4383354,0c-2.9466305,0-2.6889534,2.2472191-2.2641659,3.5877304
	c0.5551834,1.7633972,0.8961735,3.3975143,4.6091213,3.3975143c1.2566757,0,2.8499336,0,2.8499336,0
	c0.4827805,0,0.8730621,0.3883591,0.8730621,0.8732376c0,0.480835-0.3902817,0.8732452-0.8730621,0.8732452
	c0,0-1.2107201,0-2.7389946,0c-1.9097404,0-2.0006294,1.807251-1.8008957,2.4557571
	c0.2182236,0.7094421,0.4762802,1.2346573,0.4878883,1.2580795c0.5287399,0.951622,1.3778305,1.5247421,3.1787796,1.5247421
	h9.5452538c4.7970276,0,9.5533714-1.0877609,9.6762962-1.115242c7.2552338-1.6711044,7.6365356-1.8009109,8.0920143-1.9307098
	c0,0,1.4772148-0.249054,1.4772148-1.5381317l0.0135422-24.1193352c0-0.8182983-0.521698-1.5587387-1.3870201-1.8192329
	c-0.1072311-0.0435028-0.2535896-0.0873566-0.359478-0.1319199c-7.9780655-3.3031044-10.4065475-10.5472584-10.4778709-16.4959831
	c-0.0099983-0.8357258-0.6546783-1.7464867-1.7464485-1.7464867c-1.8467445,0-5.109478,3.7055607-5.109478,8.2917557
	c0,4.1407776,0.1651726,4.856739,1.6166382,9.1713486c-17.4630642,0-17.3402996,0.2506332-18.8821716,0.6550217
	c-1.9100628,0.5458221-2.0733547,2.1285057-2.0733547,2.6741486C26.3996181,45.2518539,26.4170322,45.1643219,26.4385338,45.7510033
	z M67.5553284,71.0116501L67.5553284,71.0116501c0,0.965004,0.7807693,1.7463074,1.7462845,1.7463074h4.8838348
	c0.9650269,0,1.7463379-0.7813034,1.7463379-1.7463074V43.070507c0-0.9650078-0.781311-1.7464867-1.7463379-1.7464867h-4.8838348
	c-0.9655151,0-1.7462845,0.7814789-1.7462845,1.7464867V71.0116501z M27.8595238,38.6549759
	c2.1806374-0.5725899,7.3157005-0.5655518,14.8229713-0.7638664c-0.3559875-1.6390495-0.4362907-3.1153526-0.4362907-5.7384377
	c0-6.2657547,4.5636482-11.7840233,8.6017799-11.7840233c2.8513336,0,5.2033272,2.3310528,5.2387466,5.1977158
	c0.0394554,3.5164013,1.1257973,9.5914116,6.9855728,12.6708336c0.429409,0.2266769,1.6591568,0.8322067,1.8382492,0.9125214
	l-0.0917511,0.0785561c0.9176254-0.7913475,2.1876831-1.3970528,3.4927826-1.3970528h5.2387543
	c2.8886871,0,5.2387466,2.350605,5.2387466,5.2392845v27.941143c0,2.8886795-2.3500595,5.2387543-5.2387466,5.2387543h-5.2387543
	c-2.0793686,0-3.8173752-1.2547379-4.6596413-3.0151367c-0.0204239,0.0070419-0.0579414,0.0170822-0.081913,0.020607
	c-0.1156731,0.0308228-0.2505836,0.0648117-0.4177475,0.1091995c-0.0304756,0.0065155-0.0474091,0.0100403-0.0799789,0.020607
	c-1.0060387,0.2490463-2.942009,0.7129669-7.0810318,1.6644135c-0.8885956,0.2007828-5.5726967,1.2003098-10.4315376,1.2003098
	h-9.5452538c-2.9107285,0-5.0066566-1.1189423-6.2552166-3.3659821c-0.0190277-0.034523-0.4214535-0.8188171-0.7488995-1.8798141
	c-0.2456913-0.7978668-0.3376579-1.9271927-0.0405273-3.0729141c-1.8746929-1.2890778-2.4783058-3.2372284-2.8722935-4.5058823
	c-0.6563969-2.0804253-0.4588108-3.6419754-0.0013981-4.7609215c-1.0544682-0.9960022-1.9541359-2.5142288-2.3351173-4.8297844
	c-0.2351017-1.4365005,0.0174694-2.9128075,0.680584-4.1423569c-0.9891624-1.1104889-1.4409313-2.5073586-1.4903812-3.7999649
	l-0.0204792-0.3649368c-0.0133839-0.2301979-0.0239182-0.3714523-0.0239182-0.8746567
	C22.9068336,42.4464836,24.4334946,39.6340752,27.8595238,38.6549759z"/>
</svg>
