<?xml version="1.0" encoding="utf-8"?>
<svg version="1.1" xmlns="http://www.w3.org/2000/svg" xmlns:xlink="http://www.w3.org/1999/xlink" x="0px" y="0px"
	 width="103px" height="103px" viewBox="0 0 103 103" style="enable-background:new 0 0 103 103;" xml:space="preserve">
<style type="text/css">
	.st0{fill-rule:evenodd;clip-rule:evenodd;fill:#E16A1D;}
	.st1{fill-rule:evenodd;clip-rule:evenodd;fill:#FFFFFF;}
</style>
<path class="st0" d="M51.5000267,0.4999866C79.6667709,0.4999866,102.5,23.3332386,102.5,51.5
	s-22.8332291,51.0000153-50.9999733,51.0000153C23.3332329,102.5000153,0.5,79.6667633,0.5,51.5
	S23.3332329,0.4999866,51.5000267,0.4999866"/>
<path class="st1" d="M69.5177917,36.2321548l12.1384811-6.4211025c0.4868698-0.2574959,1.0984344-0.0697479,1.3555756,0.4168987
	l12.1943817,23.0160713c0.2582092,0.4861107,0.0714874,1.0983353-0.4168854,1.3563614l-12.1384811,6.4211044
	c-0.4878387,0.2574997-1.0983276,0.0708008-1.3564377-0.4168968L69.1004791,37.5886955
	C68.8422623,37.1008224,69.0300674,36.4901886,69.5177917,36.2321548 M30.5914764,34.3768234L30.5914764,34.3768234
	L17.580204,29.9818974c-0.5211601-0.1763077-1.0948353,0.1072655-1.2716713,0.6291313L7.956367,55.2819977
	c-0.1756015,0.5211639,0.1069083,1.0953407,0.6291442,1.2714691l13.0107889,4.3951035
	c0.5221806,0.1766548,1.09478-0.1053238,1.2716179-0.6280746l8.3516273-24.6720276
	C31.3962212,35.125721,31.1126366,34.5531311,30.5914764,34.3768234z M75.337204,57.9360733l-9.0955811-17.0472641
	c-3.0044136-1.2656593-6.0699959-2.5019035-9.2238312-3.3226624c-2.0608864-0.536129-2.7938194-0.4612732-4.6680832,0.5576248
	c-1.8781357,1.0199623-4.9945068,2.1748276-6.48489,3.5318947c-1.5253181,1.4616928-4.6355629,5.3324585-5.5487785,7.2106895
	c0.5886192,0.6351166,2.8013458,0.7235336,3.4623642,0.1567535c1.6840973-1.4437218,3.5188522-2.6979332,5.1968231-4.1437645
	l0.6650467-0.5725937l5.8154335,0.7184258l0.4726791,0.4493027c5.1709671,4.9062271,10.2793694,9.8829002,15.5913811,14.6378326
	L75.337204,57.9360733z M34.5645714,40.3181496L34.5645714,40.3181496l-5.6291885,16.0760956
	c3.7270279,2.6336479,18.9648972,15.3742256,20.4038925,15.684391c1.6464157,0.3538437,5.9076653,1.3884201,7.263134,0.5396576
	l-6.1144409-5.3905792c-0.4478989-0.3943558-0.4917603-1.0844269-0.0973969-1.5326691
	c0.3939896-0.4484253,1.0854836-0.4928055,1.5332222-0.0979233l7.3047371,6.4404755
	c1.5447769,0.4019241,3.2053299,0.2027206,4.2961311-1.0245361l-9.1335297-7.7639084
	c-0.4536476-0.3869514-0.5115929-1.0738525-0.1257744-1.5293198c0.3848495-0.4547615,1.073925-0.513237,1.5288658-0.126812
	l9.7839088,8.3181801c1.6220627,0.1044464,3.3120728-0.2691269,3.3471222-2.1713104l-8.7769547-7.4857979
	c-0.4539719-0.3869514-0.5072937-1.0764923-0.1194305-1.5293198c0.3874283-0.4533539,1.075428-0.505661,1.528759-0.1197624
	l8.9228249,7.6111984c0.3050842-0.0258865,0.5915756-0.1333313,0.8317337-0.32901
	c0.4908447-0.4003372,0.6585388-1.0484924,0.5940399-1.6589508c-0.0948105-0.9077606-0.6640244-1.7094955-1.3285904-2.3026962
	c-5.4627228-4.8687134-10.7050743-9.9792442-16.0118141-15.015274l-4.2980156-0.5312042
	c-1.6779671,1.4458351-3.5191765,2.7055016-5.2008553,4.1474648c-2.2560501,1.9335327-7.9625816,0.43433-6.5392838-2.5098267
	c0.9121399-1.8866844,4.298233-6.1914291,5.9666862-7.7905006c1.700489-1.5486946,4.8389549-2.7174797,6.9098358-3.8427582
	c2.3300095-1.2661896,3.559166-1.3979301,6.1124001-0.7333984c3.4553757,0.899128,6.8573265,2.2975922,10.1419868,3.6879425
	l10.3321609,19.3644104l-4.6055222,2.6255417c1.8477097,2.7335052,1.2800064,5.9865952-1.8703918,7.350708
	c-0.783783,2.4582214-2.8292999,3.6384506-5.3815613,3.4612732c-1.6853867,2.2886047-3.9225731,2.8263245-6.6781235,2.4768829
	c-1.5810013,1.0275345-8.4454727,1.0523682-11.5363159-0.2451706c-1.7010803-0.7149048-17.7577782-14.063652-22.0803013-16.9134026
	l6.7969608-19.8401299l14.3547554,0.0982742c-1.4484558,0.6391716-3.0994987,1.2661858-4.0421104,2.6116295L34.5645714,40.3181496z"
	/>
</svg>
