<?xml version="1.0" encoding="utf-8"?>
<svg version="1.1" xmlns="http://www.w3.org/2000/svg" xmlns:xlink="http://www.w3.org/1999/xlink" x="0px" y="0px"
	 width="160px" height="160px" viewBox="0 0 160 160" style="enable-background:new 0 0 160 160;" xml:space="preserve">
<style type="text/css">
	.st0{fill-rule:evenodd;clip-rule:evenodd;fill:#C42144;}
	.st1{fill-rule:evenodd;clip-rule:evenodd;fill:#FFFFFF;}
</style>
<polygon class="st0" points="80,0.5648074 87.4316635,9.289032 96.515564,2.3000443 101.9714127,12.3792076 112.3093262,7.4310536 
	115.5508499,18.4244919 126.6908646,15.73524 127.5750198,27.161293 139.0325775,26.8471451 137.5210114,38.2078018 
	148.7935638,40.2825928 144.9539185,51.0811043 155.54776,55.4530258 149.5464325,65.2172852 159,71.6969452 
	151.1006317,80.0001221 159,88.3033066 149.5464325,94.7827148 155.54776,104.547226 144.9539185,108.9188995 
	148.7935638,119.717659 137.5210114,121.7921982 139.0325775,133.1528625 127.5750198,132.8380737 126.6908646,144.2647552 
	115.5508499,141.5751343 112.3093262,152.5689392 101.9714127,147.6207886 96.515564,157.6994476 87.4316635,150.710968 
	80,159.4351959 72.5683365,150.710968 63.4838104,157.6994476 58.0285912,147.6207886 47.6906738,152.5689392 
	44.4491463,141.5751343 33.3093262,144.2647552 32.4249802,132.8380737 20.966795,133.1528625 22.4789963,121.7921982 
	11.2064323,119.717659 15.0454464,108.9188995 4.4523015,104.547226 10.4531298,94.7827148 1,88.3033066 8.8993645,80.0001221 
	1,71.6969452 10.4531298,65.2172852 4.4523015,55.4530258 15.0454464,51.0811043 11.2064323,40.2825928 22.4789963,38.2078018 
	20.966795,26.8471451 32.4249802,27.161293 33.3093262,15.73524 44.4491463,18.4244919 47.6906738,7.4310536 58.0285912,12.3792076 
	63.4838104,2.3000443 72.5683365,9.289032 "/>
<path class="st1" d="M53.2281418,57.9737587c1.977829,0.9426994,3.9781036,1.7807617,6.0037193,2.5126877V46.4911118
	c0-5.0844765,4.1596413-9.2433586,9.2440529-9.2433586c7.699028,0,15.3981247,0,23.097847,0
	c5.0843506,0,9.2436142,4.1588821,9.2436142,9.2433586v13.9953346c2.0254288-0.731926,4.0265198-1.5699883,6.004158-2.5126877
	c1.5045319-0.7173347,3.0282364,1.362484,3.0282364,3.028553c0,1.6663208-1.4940262,2.378624-3.0282364,3.0280533
	c-18.3555527,7.7689514-35.2378311,7.7689514-53.5933914,0c-1.5342102-0.6494293-3.0288696-1.3617325-3.0288696-3.0280533
	C50.1992722,59.3362427,51.7241783,57.256424,53.2281418,57.9737587 M61.6761971,56.8004189v4.4629707
	c12.3779335,2.895752,24.3192863,2.895752,36.6968422,0v-4.4629707
	C85.5965729,59.8282166,74.4530411,59.8282166,61.6761971,56.8004189z M92.5084076,107.15448l-12.4832535,7.0397949
	L67.5412674,107.15448c-0.6243362-0.3516235-1.3287811-0.084259-1.3287811,0.5978699v14.4803848
	c0,0.6821213,0.7079697,0.9477234,1.3287811,0.5978622l12.4838867-7.0396652l12.4832535,7.0396652
	c0.6214447,0.3498611,1.3287811,0.084259,1.3287811-0.5978622v-14.4803848
	C93.8371887,107.0702209,93.1326828,106.8028564,92.5084076,107.15448z M93.0556488,92.5451889
	c0.5348587,0.7072754,1.1447983,1.3748093,1.8665314,1.9110489c2.5961914,1.9256439,6.2308426,2.5458908,10.0635071,0.0093079
	c1.8116989-1.1979904,3.394577-2.6253662,3.4833679-5.2733688c-0.4988327,0.3800507-1.1219101,0.6054077-1.7971115,0.6054077
	c-1.6411667,0-2.9717712-1.3297806-2.9717712-2.9704514c0-1.6416702,1.3306046-2.9717102,2.9717712-2.9717102
	c0.6863327,0,1.3182755,0.2331619,1.8216324,0.624527c0.1081543,0.0535736,0.2418976,0.17556,0.4113007,0.3863373
	l0.0133896,0.0158463c0.1202927,0.1398392,0.2282562,0.2897491,0.3211899,0.4499664l0.0041504,0.0057831
	c1.0705948,1.6653137,1.0197296,4.160141,0.3294296,5.9620361c-0.9461517,2.4706802-3.0523224,4.7064438-4.4120407,5.8050766
	c-3.8068771,3.075592-9.0361099,4.3915405-14.6973801,4.3269043c-0.7407303-0.0090561-1.320549-0.0203705-1.8327637-0.0560913
	c-3.1201706-0.2145462-6.7051544-1.7430344-8.3497772-4.423233c-0.0888519-0.1441193-0.174118-0.2854691-0.2559204-0.4263229
	c-0.0811768,0.1408539-0.1677628,0.2822037-0.2563629,0.4263229c-1.6454468,2.6801987-5.2297974,4.2086868-8.3499603,4.423233
	c-0.5120392,0.0357208-1.092041,0.0470352-1.8327713,0.0560913c-5.661274,0.0646362-10.8903122-1.2513123-14.6973839-4.3269043
	c-1.3603439-1.0986328-3.4653168-3.3343964-4.4121017-5.8050766c-0.6896057-1.8018951-0.7411041-4.2967224,0.3301201-5.9620361
	l0.0028915-0.0057831c0.0935059-0.1602173,0.2009048-0.3101273,0.3218231-0.4499664l0.0133934-0.0158463
	c0.1687698-0.2107773,0.3030815-0.3327637,0.4106674-0.3863373c0.5033569-0.3913651,1.1359291-0.624527,1.8222618-0.624527
	c1.6411057,0,2.9717751,1.33004,2.9717751,2.9717102c0,1.6406708-1.3306694,2.9704514-2.9717751,2.9704514
	c-0.6752052,0-1.2982826-0.2253571-1.7971077-0.6054077c0.0881577,2.6480026,1.6716003,4.0753784,3.4839897,5.2733688
	c3.8320351,2.5365829,7.4660606,1.9163361,10.0628128-0.0093079c0.7218018-0.5362396,1.3323059-1.2037735,1.8666-1.9110489
	c2.0727768-2.7468491,2.6241684-5.5311737,7.1361847-5.5311737c2.5365829,0,4.7449951,1.4022217,5.8949432,3.4739914
	c1.1495056-2.0717697,3.3572845-3.4739914,5.8949356-3.4739914C90.4308548,87.0140152,90.982811,89.7983398,93.0556488,92.5451889z"
	/>
</svg>
