<?xml version="1.0" encoding="utf-8"?>
<svg version="1.1" xmlns="http://www.w3.org/2000/svg" xmlns:xlink="http://www.w3.org/1999/xlink" x="0px" y="0px"
	 width="160px" height="160px" viewBox="0 0 160 160" style="enable-background:new 0 0 160 160;" xml:space="preserve">
<style type="text/css">
	.st0{fill-rule:evenodd;clip-rule:evenodd;fill:#C42144;}
	.st1{fill-rule:evenodd;clip-rule:evenodd;fill:#FFFFFF;}
</style>
<polygon class="st0" points="79.9997177,0.5651551 87.431282,9.2893419 96.51577,2.3003845 101.9716568,12.3795042 
	112.3088989,7.4313712 115.550354,18.4247627 126.6903763,15.7355213 127.5745316,27.1615257 139.0326691,26.8473778 
	137.5211029,38.2079849 148.7935486,40.2827644 144.9539185,51.0812302 155.5470886,55.4531326 149.5464783,65.2173538 
	159,71.6969833 151.1000366,80.0001221 159,88.3032684 149.5464783,94.7826462 155.5470886,104.5471191 144.9539185,108.9187698 
	148.7935486,119.7174835 137.5211029,121.7920151 139.0326691,133.1526184 127.5745316,132.8378448 126.6903763,144.2644806 
	115.550354,141.5748596 112.3088989,152.568634 101.9716568,147.6204987 96.51577,157.6991119 87.431282,150.7106628 
	79.9997177,159.434845 72.5680847,150.7106628 63.4842262,157.6991119 58.0283394,147.6204987 47.6904716,152.568634 
	44.4490204,141.5748596 33.3092461,144.2644806 32.4249039,132.8378448 20.9673996,133.1526184 22.4789028,121.7920151 
	11.2064505,119.7174835 15.0460768,108.9187698 4.4522862,104.5471191 10.4535294,94.7826462 1,88.3032684 8.8993301,80.0001221 
	1,71.6969833 10.4535294,65.2173538 4.4522862,55.4531326 15.0460768,51.0812302 11.2064505,40.2827644 22.4789028,38.2079849 
	20.9673996,26.8473778 32.4249039,27.1615257 33.3092461,15.7355213 44.4490204,18.4247627 47.6904716,7.4313712 
	58.0283394,12.3795042 63.4842262,2.3003845 72.5680847,9.2893419 "/>
<path class="st1" d="M80.439621,44.0907631L80.439621,44.0907631c-10.6937027,0-19.36306,8.668602-19.36306,19.3634377
	c0,10.6935806,8.6693573,19.3616791,19.36306,19.3616791c10.6934586,0,19.3628159-8.6680984,19.3628159-19.3616791
	C99.8024368,52.7593651,91.1330795,44.0907631,80.439621,44.0907631"/>
<path class="st1" d="M80.439621,40.9746933L80.439621,40.9746933c-12.4137802,0-22.4788132,10.0652885-22.4788132,22.4795074
	c0,12.4129639,10.065033,22.4782486,22.4788132,22.4782486c12.4135361,0,22.4788208-10.0652847,22.4788208-22.4782486
	C102.9184418,51.0399818,92.853157,40.9746933,80.439621,40.9746933 M95.5218353,37.3284264L95.5218353,37.3284264
	c-3.0395432-1.7556038-4.3466873,0.6436348-7.9934616-0.3317566c-3.6504822-0.9766464-3.5728302-3.7099037-7.0887527-3.7099037
	c-3.5161667,0-3.4390793,2.7352676-7.0906296,3.7099037c-3.6457672,0.9748878-4.9539185-1.4215851-7.9922714,0.3317566
	c-3.0529327,1.7621384-1.6056938,4.0889435-4.2836151,6.7623367c-2.6720123,2.6673584-5.0000725,1.2339516-6.7586937,4.280098
	c-1.7528343,3.0363388,0.6411858,4.3477554-0.3317528,7.9910088c-0.974762,3.6533127-3.7094002,3.5750923-3.7094002,7.0923309
	c0,3.5137177,2.7298584,3.4332352,3.7053146,7.0870514c0.9731255,3.6475296-1.4141045,4.9632263,0.3358383,7.995285
	c1.8104973,3.1356888,4.1847725,1.591362,6.8242149,4.2139511c2.6505051,2.6346588,1.0553093,5.0017014,4.2180939,6.8282318
	c3.0365295,1.7520828,4.3448639-0.6413727,7.9906311,0.3315048c3.65728,0.9751358,3.5748444,3.709404,7.0922699,3.709404
	c3.6140137,0,3.468132-2.8220444,7.0642242-3.796936c3.6069717-0.9776535,4.8651352,1.5765228,8.0179901-0.2439728
	c3.1580658-1.8240128,1.5723038-4.193573,4.2169037-6.8282318c2.6410751-2.6288757,5.0124588-1.0724792,6.8252182-4.2139511
	c1.8065948-3.1291504-0.7100372-4.4214554,0.2441635-8.0211945c0.9550171-3.6065292,3.7976151-3.4158783,3.7976151-7.061142
	c0-3.6188545-2.8273239-3.4681931-3.7979965-7.0706978c-0.9709244-3.5989876,1.5745697-4.8623657-0.243782-8.0126419
	c-1.7608261-3.0496674-4.0889435-1.6087151-6.7627792-4.2848778C97.1302338,41.4138489,98.5716858,39.0893097,95.5218353,37.3284264
	z"/>
<path class="st1" d="M100.1434326,89.1370544c3.2591782,12.218544,7.9444122,23.3988113,13.4814758,33.9604721
	c0.0792923,0.232399-0.0445175,0.6477814-0.2775497,0.5665436l-11.9464569-3.7310333l-4.7909317,9.4850388
	c-0.1326828,0.2049866-0.4877014-0.0455322-0.5672455-0.2779388c-5.0433273-9.1638412-9.4815674-19.8843307-13.0747681-32.7774429
	c0.8615112-0.2814484,1.6634216-0.7266388,2.4284744-1.3561935c0.9887848-0.8154221,1.6413498-1.8242645,2.9237213-2.1716156
	c1.2675934-0.3440781,2.3077469,0.1979446,3.5540924,0.414505c1.8890305,0.3282318,3.5493088-0.0103149,5.2081985-0.9683456
	C98.4573746,91.4880066,99.4624405,90.4816742,100.1434326,89.1370544 M77.5355835,96.2218399
	c-2.416275,14.8894196-7.3901901,24.6636963-13.1233749,32.9189224c-0.0792923,0.2324066-0.4345016,0.4829254-0.5666122,0.2773132
	l-4.6636009-8.9740753l-12.0749855,3.2200699c-0.2312088,0.0812378-0.3562775-0.3341446-0.2757263-0.5665436
	c6.3733635-9.5933151,11.8512573-20.1211472,13.6607475-34.4848862c0.6733818,1.612236,1.7557297,2.7747574,3.304142,3.6684036
	c1.5640717,0.9032059,3.1456833,1.2482834,4.9358063,1.0018005c1.3678894-0.1886444,2.425148-0.7266388,3.8103256-0.3569107
	c1.3873138,0.3697357,2.0215225,1.3561935,3.1102829,2.2053223C76.256485,95.6033554,76.8795624,95.9617691,77.5355835,96.2218399z"
	/>
</svg>
