<?xml version="1.0" encoding="utf-8"?>
<svg version="1.1" xmlns="http://www.w3.org/2000/svg" xmlns:xlink="http://www.w3.org/1999/xlink" x="0px" y="0px"
	 width="160px" height="160px" viewBox="0 0 160 160" style="enable-background:new 0 0 160 160;" xml:space="preserve">
<style type="text/css">
	.st0{fill-rule:evenodd;clip-rule:evenodd;fill:#C42144;}
	.st1{fill-rule:evenodd;clip-rule:evenodd;fill:#FFFFFF;}
</style>
<polygon class="st0" points="80.0000992,0.5649102 87.4317398,9.2891235 96.5162582,2.3001449 101.9712982,12.3792953 
	112.3094177,7.4311476 115.5509109,18.424572 126.6907196,15.735323 127.575058,27.1613617 139.0332336,26.8472137 
	137.5210571,38.207859 148.7935791,40.2826424 144.9545441,51.0811424 155.5477295,55.4530563 149.546875,65.217308 159,71.6969528 
	151.1006775,80.0001221 159,88.303299 149.546875,94.782692 155.5477295,104.5471954 144.9545441,108.9188614 
	148.7935791,119.7176056 137.5210571,121.7921448 139.0332336,133.1527863 127.575058,132.8380127 126.6907196,144.264679 
	115.5509109,141.575058 112.3094177,152.5688477 101.9712982,147.6207123 96.5162582,157.6993561 87.4317398,150.7108765 
	80.0000992,159.4350891 72.5684814,150.7108765 63.4845772,157.6993561 58.0287056,147.6207123 47.6908188,152.5688477 
	44.4493103,141.575058 33.3092842,144.264679 32.4251442,132.8380127 20.9673977,133.1527863 22.4791565,121.7921448 
	11.2066393,119.7176056 15.046277,108.9188614 4.4524856,104.5471954 10.4537468,94.782692 1,88.303299 8.8995438,80.0001221 
	1,71.6969528 10.4537468,65.217308 4.4524856,55.4530563 15.046277,51.0811424 11.2066393,40.2826424 22.4791565,38.207859 
	20.9673977,26.8472137 32.4251442,27.1613617 33.3092842,15.735323 44.4493103,18.424572 47.6908188,7.4311476 
	58.0287056,12.3792953 63.4845772,2.3001449 72.5684814,9.2891235 "/>
<path class="st1" d="M101.7897797,85.5164566h4.8261719v4.8261642h-4.8261719V85.5164566z M94.0678177,85.5164566h4.8255844
	v4.8261642h-4.8255844V85.5164566z M86.4260406,85.5164566h4.8259735v4.8261642h-4.8259735V85.5164566z M78.7040863,85.5164566
	h4.8265991v4.8261642h-4.8265991V85.5164566z M70.5803452,85.5164566h4.8259811v4.8261642h-4.8259811V85.5164566z
	 M89.4011078,103.4810028h6.8862305v6.8856049h-6.8862305V103.4810028z M78.3838806,103.4810028h6.8862381v6.8856049h-6.8862381
	V103.4810028z M67.481842,103.4810028h6.8854141v6.8856049H67.481842V103.4810028z M56.4646149,103.4810028h6.8856201v6.8856049
	h-6.8856201V103.4810028z M73.2016525,74.5718231h4.8288803c0.7085724,0,1.2879791,0.5792542,1.2879791,1.2877884v2.6638412
	l7.6751785-1.1680603V67.1633148h7.1266861V37.8994942h6.8633575v29.2638206h7.1256485v10.1920776l4.5906754,1.1680603V95.373764
	l4.0166473,1.1668015v20.3134918H37.5309486V96.5405655l25.4774551-1.1668015V78.5234528h8.905262v-2.6638412
	C71.9136658,75.1510773,72.4930725,74.5718231,73.2016525,74.5718231z M44.8737679,103.4810028h6.8856049v6.8856049h-6.8856049
	V103.4810028z"/>
</svg>
