<?xml version="1.0" encoding="utf-8"?>
<svg version="1.1" xmlns="http://www.w3.org/2000/svg" xmlns:xlink="http://www.w3.org/1999/xlink" x="0px" y="0px"
	 width="160px" height="160px" viewBox="0 0 160 160" style="enable-background:new 0 0 160 160;" xml:space="preserve">
<style type="text/css">
	.st0{fill-rule:evenodd;clip-rule:evenodd;fill:#C42144;}
	.st1{fill-rule:evenodd;clip-rule:evenodd;fill:#FFFFFF;}
</style>
<polygon class="st0" points="79.9998932,0.564918 87.4315414,9.2891312 96.5154266,2.3001525 101.9712982,12.379302 
	112.3092041,7.4311547 115.5506592,18.4245777 126.6907196,15.7353296 127.5748749,27.1613674 139.0324097,26.8472195 
	137.5208435,38.2078629 148.793396,40.2826462 144.9536896,51.0811424 155.5475159,55.4530602 149.5462494,65.217308 
	159,71.6969604 151.1004639,80.0001221 159,88.3032913 149.5462494,94.782692 155.5475159,104.5471954 144.9536896,108.9188538 
	148.793396,119.7176056 137.5208435,121.7921371 139.0324097,133.1527863 127.5748749,132.8379974 126.6907196,144.2646637 
	115.5506592,141.5750427 112.3092041,152.5688477 101.9712982,147.620697 96.5154266,157.6993408 87.4315414,150.7108765 
	79.9998932,159.4350891 72.5682678,150.7108765 63.4837532,157.6993408 58.028511,147.620697 47.690609,152.5688477 
	44.4491196,141.5750427 33.3092804,144.2646637 32.4249344,132.8379974 20.9667988,133.1527863 22.4789352,121.7921371 
	11.2064495,119.7176056 15.0460873,108.9188538 4.4522967,104.5471954 10.453557,94.782692 1,88.3032913 8.899354,80.0001221 
	1,71.6969604 10.453557,65.217308 4.4522967,55.4530602 15.0460873,51.0811424 11.2064495,40.2826462 22.4789352,38.2078629 
	20.9667988,26.8472195 32.4249344,27.1613674 33.3092804,15.7353296 44.4491196,18.4245777 47.690609,7.4311547 
	58.028511,12.379302 63.4837532,2.3001525 72.5682678,9.2891312 "/>
<path class="st1" d="M107.1531067,88.6604538c6.3167343,1.5782852,10.1580048,7.9794617,8.5799026,14.2968826
	c-1.5786896,6.3166656-7.9800873,10.156868-14.296814,8.5793381c-6.3165131-1.5780334-10.1580048-7.9794617-8.5793076-14.2963791
	C94.4345779,90.923378,100.8364105,87.0829239,107.1531067,88.6604538 M83.7892838,93.0240707l4.5937576,0.7090302
	l0.0490494,0.0130768c0.5414886-1.3551865,1.2422256-2.6097641,2.0769196-3.7481461l-0.0111313-0.0098038l-3.0558319-3.5464325
	l2.6305771-2.7211914l3.5709534,2.8600311l0.0894165,0.086525c1.0168304-0.7983246,2.1214447-1.4789352,3.2907562-2.0302658
	l-0.0065994-0.0176086l-0.9875641-4.5758972l3.611763-1.1315918l1.7674561,4.2210083l0.0362549,0.1159515
	c1.5290451-0.2588196,3.1096268-0.3126373,4.7058716-0.1375809l0.0038986-0.0168533l1.5432892-4.4189529l3.6713104,0.9175491
	l-0.6908951,4.5235825l-0.0304642,0.1192169c1.4789658,0.5910721,2.8403168,1.3743057,4.059906,2.3127213l3.6176987-2.9925766
	l2.6621475,2.6902542l-2.9915771,3.5585022l-0.0372849,0.036972c0.7761307,1.0355072,1.4338531,2.1567764,1.9588394,3.3396759
	l4.6123047-0.8959122l1.0495911,3.6352158L121.2517319,97.6138l-0.0477905,0.0140839
	c0.2066879,1.4097672,0.2388229,2.8615417,0.077095,4.3258896l0.0174789,0.004776l4.419075,1.542572l-0.9175415,3.671936
	l-4.5237122-0.6914291l-0.1190948-0.0304337c-0.541893,1.3579559-1.2451477,2.6147995-2.082077,3.7544403l3.0727539,3.5486908
	l-2.6302032,2.7229462l-3.624115-2.911087l-0.0378876-0.0372238c-1.0185013,0.7995834-2.1253738,1.4822083-3.2969513,2.0347977
	l1.0009842,4.5901031l-3.6107254,1.1307068l-1.7894974-4.2881546l-0.0158768-0.0477905
	c-1.5307159,0.2593155-3.1141586,0.3136444-4.7120361,0.1353149l-1.5391693,4.4365616l-3.6719055-0.9169159l0.7095947-4.593132
	l0.0117645-0.0482864c-1.4765167-0.5913239-2.8351974-1.3720398-4.0529251-2.308197l-0.0111313,0.012825l-3.6129913,2.9752274
	l-2.6620789-2.6902542l2.9396362-3.5074463l0.0881882-0.0867691c-0.7751541-1.0339966-1.4309921-2.1537628-1.9555664-3.3338928
	L88.65522,107.028183l-4.5960236,0.884346l-1.0495911-3.6352158l4.2589493-1.6733627l0.1168365-0.0334549
	c-0.2066879-1.4137878-0.2381897-2.8688278-0.0752411-4.3359451l-4.4377823-1.5385437L83.7892838,93.0240707z
	 M67.9928436,48.8851242c9.1013947,0,16.4798813,7.3790855,16.4798813,16.4805756s-7.3784866,16.4800797-16.4798813,16.4800797
	c-9.1016197,0-16.4807053-7.3785858-16.4807053-16.4800797S58.8912239,48.8851242,67.9928436,48.8851242z M37.7860146,62.7199669
	l6.4698105-0.594593h0.0723457c0.2740288-2.0202065,0.8002701-3.9586678,1.5459328-5.7857094L45.855587,56.328598
	l-5.3460541-3.7730446l2.6452026-4.5821877l5.812748,2.6693802l0.151226,0.0870247
	c1.1079102-1.4276276,2.3742485-2.7252159,3.7730789-3.8683739l-0.0146217-0.0226364l-2.8893623-5.8704681l4.5142441-2.7581673
	l3.8279076,5.1242104l0.0887871,0.1453781c1.9846497-0.8702583,4.1099892-1.4781799,6.33424-1.7797508v-0.0251541
	l0.5944366-6.5163727h5.2906265l0.5950623,6.3687325v0.1732979c2.2061081,0.299305,4.3174591,0.9001884,6.2893143,1.7598801
	l3.8921738-5.2839241l4.5212555,2.7460899l-2.8498154,5.8390312l-0.0389557,0.0636368
	c1.4040146,1.1411438,2.6761398,2.4384804,3.7887726,3.8658562l5.9509811-2.7795448l2.6563339,4.5751457l-5.2963791,3.7624817
	l-0.060173,0.0354652c0.7588654,1.8428841,1.2937546,3.7999611,1.5706787,5.8407898h0.0257797l6.5157471,0.594593v5.2904625
	l-6.3686371,0.5951004h-0.1728897c-0.274437,2.0244827-0.8019104,3.9669647-1.5506821,5.7967758l5.3693161,3.7732925
	l-2.6447906,4.5811844l-5.9007187-2.7189255l-0.0642929-0.0372314c-1.1101456,1.4296417-2.3794098,2.7304993-3.7805023,3.8746643
	l2.9120331,5.8873215l-4.5142441,2.7581635l-3.8804474-5.2104797l-0.0362473-0.0591049
	c-1.9887695,0.8710098-4.1175995,1.4806976-6.3447418,1.7815094l-0.583931,6.5385056h-5.2906265l-0.5944366-6.4695892v-0.0706711
	c-2.2026176-0.2985611-4.3092232-0.8984299-6.278183-1.7546082l-0.0121651,0.019371l-3.8911667,5.2600327l-4.5218544-2.7463455
	l2.7983131-5.7522583l0.090641-0.149147c-1.40131-1.138382-2.6703529-2.4337082-3.7825737-3.8583145l-0.0238914,0.0133286
	l-5.9334755,2.7576675l-2.6563339-4.5751495l5.2085953-3.7116776l0.1473312-0.0860138
	c-0.7598724-1.8461533-1.2956123-3.8087616-1.5717163-5.8533707l-6.5404892-0.5840302V62.7199669z"/>
</svg>
