<?xml version="1.0" encoding="utf-8"?>
<svg version="1.1" xmlns="http://www.w3.org/2000/svg" xmlns:xlink="http://www.w3.org/1999/xlink" x="0px" y="0px"
	 width="460px" height="198px" viewBox="0 0 460 198" style="enable-background:new 0 0 460 198;" xml:space="preserve">
<style type="text/css">
	.st0{fill-rule:evenodd;clip-rule:evenodd;fill:#C42144;}
</style>
<path class="st0" d="M328.4082947,102.6274338c0-1.9409866-1.199585-2.8942261-3.5999756-2.8942261
	c-2.3652344,0-5.3667908,2.4357529-9.1089783,7.3432312l-8.2611694,11.0859375
	c3.9888306-0.5652695,8.4723511-2.6475754,13.4858093-6.284668
	C325.9381104,108.2766113,328.4082947,105.1699753,328.4082947,102.6274338 M259.0358276,127.9764557L259.0358276,127.9764557
	c0,1.5179138,0.5639648,2.2950134,1.7652588,2.2950134c4.6239929-0.2118225,9.9554749-3.989357,16.0274048-11.2971802
	c6.0726013-7.3084106,8.4737549-12.9210129,7.2377014-16.8401489c0-0.8476105-0.5292358-1.2364502-1.5531616-1.2364502
	c-1.3764954,0-3.5307617,1.1305389-6.4259033,3.3895645c-3.3536377,2.7192535-6.4958801,6.0725403-9.3900452,10.1321182
	C261.5776978,121.6221542,259.0358276,126.1053925,259.0358276,127.9764557z M260.6949158,102.7339325L260.6949158,102.7339325
	c0,1.8713531-2.5768433,6.3894119-7.6609955,13.5565033c-2.8944092,4.0604553-6.0380859,7.4500198-9.427002,10.1335831
	c-2.8948669,2.294426-5.0134277,3.42379-6.3899536,3.42379c-1.0584106,0-1.5531311-0.4233704-1.5531311-1.2352753
	c-1.2351074-3.9542542,1.1646271-9.5674362,7.2365112-16.8755569c6.0726166-7.3084106,11.4041443-11.0505295,16.0295563-11.2626572
	C260.0945129,100.4743195,260.6949158,101.2163086,260.6949158,102.7339325z M230.0010834,197.1194611L230.0010834,197.1194611
	c-8.0449829,0-15.9928589-0.177887-23.8211517-0.5266418l47.383194-65.9325104
	c1.3772278,2.1537018,3.7776642,3.212265,7.2379608,3.212265c6.3192749,0,12.427124-2.1891022,18.2878723-6.531311
	c4.1306458-2.1177139,8.7548828-4.8360901,13.8742676-8.1554337c0.9654541-0.6240768,1.879364-1.223877,2.742218-1.8005524
	c-1.3561096,2.696434-2.0356445,5.3326035-2.0356445,7.9082031c0,2.4012222,0.8465881,4.4135971,2.5756531,6.0368423
	c1.7304993,1.6241302,3.7076721,2.4363403,5.896698,2.4363403c6.2329407,0,15.9194946-4.2831116,29.0383606-12.8721542
	c-1.8860474,4.2161026-1.7949829,7.7534256,0.2296143,10.613121c5.5779419,4.1306763,15.7814331,0.4944611,30.60849-10.9449081
	c-2.6825562,8.2619247-0.741333,12.3917313,5.7912292,12.3917313c6.9728699-1.4632111,14.2889709-5.5567245,21.9602356-12.2945938
	c-0.3527527,1.1144409-0.5301514,2.1768036-0.5301514,3.1865082c0,2.8951035,0.8120728,5.2951584,2.4359131,7.1314011
	c1.6238098,1.8716431,3.7151184,2.6630859,6.2492371,2.8248749c15.2304382,0.9666901,34.5143738-20.1387177,24.9711609-25.5061417
	c-3.416687-1.922554-6.9421692-0.6445541-9.0626526,1.9254837c2.5492554-1.2501984,5.2993774-1.4716873,6.5503235,1.0421829
	c3.6484375,7.3236237-20.5979309,22.6686783-20.8349915,14.3827515c-0.034729-1.1984177,1.9417114-4.3068085,6.0012207-9.2848053
	c2.8821716-3.5896912,22.729187-30.2851715,38.9034729-51.8315048C453.8485107,75.2557907,459,86.8692551,459,99.0008774
	C459,153.1905975,356.4723511,197.1194611,230.0010834,197.1194611z M304.3930054,106.5884094L304.3930054,106.5884094
	c-0.7662659,0.3914719-1.7513428,1.1396103-2.9566956,2.2537613c-4.3421021,3.8474579-8.8616028,7.2016144-13.5565186,10.026207
	c3.2470093-4.2722855,4.871582-8.6496048,4.871582-13.1331406c0-5.931221-3.2477112-8.8971252-9.7084045-8.8971252
	c-2.0116577,0.0708008-4.2006836,0.5997925-6.5311279,1.5530243l26.0765991-35.7637749h-8.7168274l-28.4729004,36.5452614
	c-1.3072205-2.6115875-2.7618713-2.3345108-6.468811-2.3345108c-7.5198517,0-14.7230377,3.0709381-21.60672,9.2151642
	c-1.8304749,1.625-3.4162292,3.2602463-4.7575073,4.906601c-5.1668549,4.187149-10.3229065,7.9784241-15.4348755,11.3679886
	c-5.7947998,3.8416061-9.8025513,5.7904968-10.7553101,5.7904968c-0.353302,0-0.6040039-0.1343002-0.6351624-0.4236603
	c-0.0388031-0.3513947,0.6895752-1.4254608,2.0831146-3.2128448l20.7934723-26.6905136h-11.8986206
	c-5.9319153,7.5199432-11.962326,14.4459534-18.1126251,20.7943954c-6.9469604,7.1726532-12.190033,10.7678986-14.062439,10.7678986
	c-2.344574,0-2.9282074-2.627388-1.86763-4.0601578l20.3716583-27.5021362h-12.819458l-4.315506,5.6439056
	c-0.6162109,0.309845-1.4846039,0.9052505-2.6036987,1.7958755c-17.793808,14.544838-28.3144836,21.8181381-31.562912,21.8181381
	c-0.8117981,0-1.2350922-0.3174515-1.2350922-1.0231628c0-0.7065811,0.4232941-1.6247025,1.2350922-2.7897644l13.769104-18.4285812
	c1.2350616-1.6952209,1.8712006-3.2476578,1.8712006-4.6248474c0-3.106926-2.2597504-4.6605377-6.7432404-4.6605377
	c-5.508194,0-13.2746429,3.6365051-23.2660675,10.9437408l32.0250244-43.8317299h-9.2836304L136.4900818,93.571434
	c-12.9373932,6.1652908-27.5722046,12.6617813-38.7397766,16.8345871
	c-6.7758331,2.5317154-19.8565598,7.1632919-27.4686661,5.4695282c-3.8639145-0.8596039-8.4704018-3.8641281-7.6612282-7.5020981
	c0.6936378-3.1186295,3.7606316-6.0081711,6.3177986-7.9772491l50.8294144-39.1431007
	c3.0871124-2.3786926,6.361908-5.6962814,7.1962433-9.4501114c3.8761597-17.4223862-42.6619492-17.0154037-77.4152985-13.2159348
	C91.4603043,15.6336966,156.7102509,0.8805351,230.0010834,0.8805351c92.9807892,0,173.0189667,23.7456722,208.8880768,57.8557739
	l-39.5149231,48.172184c-2.131958,2.5995941-2.5619812,2.6458206-4.9801636,4.6511765
	c-7.2372437,6.9552689-14.1923523,11.9692459-20.9008484,15.0396042c-6.6725464,3.072403-6.8484497,0.6714783-0.4940186-7.2016144
	l18.0766907-21.6063156h-13.3457642l-11.0501709,11.3682785c-6.8843994,6.2129822-13.133667,11.0496597-18.7125244,14.4749146
	c-8.366394,5.7545013-12.8503723,6.9549713-13.4503174,3.6362152c-0.6354065-3.3190536,1.6943665-6.9546814,6.9198608-10.9803162
	c5.2593994-3.9887772,6.0372314-6.1073608,2.4002075-6.3543015c-0.4903564-0.0327682-0.9829407-0.0102386-1.4768982,0.0670013
	c-0.5239258-0.209198-1.6368408-0.0909958-4.6308899,2.1572113c-5.2220154,3.9217682-11.2268372,7.6612625-18.0053101,11.2620697
	c-7.4490967,3.9188461-12.6737061,5.8967056-15.7099915,5.8967056c-1.0946655,0-1.660553-0.5652771-1.660553-1.6607056
	c0-1.4468155,0.9191895-3.4232101,2.7897034-5.8952332c4.9772339-0.2826385,10.6613464-2.5062561,17.0872498-6.7083282
	c6.8132324-4.4835281,10.2387695-8.7204056,10.2387695-12.6386642c0-3.7775269-2.647583-5.6839981-7.8730774-5.6839981
	c-6.283783,0-12.9918213,3.2836533-20.1595459,9.8146667L304.3930054,106.5884094z M22.6863155,57.2824707L22.6863155,57.2824707
	C8.7846775,69.9433746,1,84.0815277,1,99.0008774c0,28.9240875,29.2135754,54.9232254,75.6864777,72.8789902l51.8360443-67.8743744
	c-23.3149567,11.5350494-55.5674515,25.3659973-71.9128799,21.7303696
	c-12.913662-2.8725739-17.9460373-8.5533447-15.2570267-20.6422577c1.1380005-5.1137466,9.3692131-12.0072784,13.4498177-15.283905
	c11.1205711-8.9345779,23.9271126-17.0903015,36.117878-24.821785c4.6709213-2.9638596,21.9655304-14.5050545,18.4359589-20.819561
	C105.3578491,37.0167694,52.7349014,48.8142662,22.6863155,57.2824707z M87.8696289,175.931839L87.8696289,175.931839
	c29.6871338,10.0812073,65.3443451,17.0745087,104.3305054,19.8490601l47.8398438-62.3208618
	c-1.9771576,0.7405243-1.5516968,0.4125366-3.3522186,0.4125366c-6.4944458,0-9.7073975-2.9650269-9.7073975-8.8962555
	c0-1.8339005,0.2737122-3.6511307,0.8206482-5.4525604c-11.7600403,9.5235443-20.3287048,14.2788849-25.675827,14.2788849
	c-4.1302032,0-6.3192291-2.6130524-6.6013489-7.8730927c-5.6493225,5.2600403-10.4499359,7.8730927-14.3694763,7.8730927
	c-5.825531,0-8.7204132-2.6838531-8.7204132-8.0858002c0-2.9860916,1.632019-6.6577072,4.8938446-11.0452652
	c-14.1453705,11.9086761-23.4690399,17.8855515-27.947052,17.8855515c-2.225235,0-4.1309662-0.705719-5.7547913-2.1188812
	c-1.6243439-1.4465332-2.4356689-3.1771545-2.4356689-5.2249374c0-3.3181763,2.1890259-7.7668839,6.5306396-13.345253
	c1.4477081-1.8707733,4.27211-5.6837006,8.4730377-11.5093079c-3.6364594,0.7765121-8.9670258,3.9542465-15.9216614,9.5329132
	c-5.4379272,4.3425064-10.168808,8.6490173-14.1583405,12.9213028L87.8696289,175.931839z"/>
</svg>
